<mxfile host="app.diagrams.net" modified="2023-10-13T07:44:43.776Z" agent="Mozilla/5.0 (Windows NT 10.0; Win64; x64) AppleWebKit/537.36 (KHTML, like Gecko) Chrome/117.0.0.0 Safari/537.36 Edg/117.0.2045.60" version="22.0.4" etag="L9j9EPpkuFJC5k3Bq2Bl" type="github">
  <diagram name="第 1 页" id="7ROx7_aEjGXye-tok1HD">
    <mxGraphModel>
      <root>
        <mxCell id="0" />
        <mxCell id="1" parent="0" />
      </root>
    </mxGraphModel>
  </diagram>
</mxfile>
